<?xml version="1.0" encoding="UTF-8" standalone="no"?>
<!-- Created with Inkscape (http://www.inkscape.org/) -->

<svg
   xmlns:dc="http://purl.org/dc/elements/1.1/"
   xmlns:cc="http://creativecommons.org/ns#"
   xmlns:rdf="http://www.w3.org/1999/02/22-rdf-syntax-ns#"
   xmlns:svg="http://www.w3.org/2000/svg"
   xmlns="http://www.w3.org/2000/svg"
   xmlns:sodipodi="http://sodipodi.sourceforge.net/DTD/sodipodi-0.dtd"
   xmlns:inkscape="http://www.inkscape.org/namespaces/inkscape"
   id="svg2985"
   version="1.1"
   inkscape:version="0.48.1 "
   width="298"
   height="268"
   sodipodi:docname="New document 2">
  <metadata
     id="metadata2991">
    <rdf:RDF>
      <cc:Work
         rdf:about="">
        <dc:format>image/svg+xml</dc:format>
        <dc:type
           rdf:resource="http://purl.org/dc/dcmitype/StillImage" />
        <dc:title></dc:title>
      </cc:Work>
    </rdf:RDF>
  </metadata>
  <defs
     id="defs2989" />
  <sodipodi:namedview
     pagecolor="#ffffff"
     bordercolor="#666666"
     borderopacity="1"
     objecttolerance="10"
     gridtolerance="10"
     guidetolerance="10"
     inkscape:pageopacity="0"
     inkscape:pageshadow="2"
     inkscape:window-width="1366"
     inkscape:window-height="706"
     id="namedview2987"
     showgrid="false"
     inkscape:zoom="1.0858209"
     inkscape:cx="149"
     inkscape:cy="134"
     inkscape:window-x="0"
     inkscape:window-y="0"
     inkscape:window-maximized="1"
     inkscape:current-layer="svg2985" />
  <path
     style="fill:#000000"
     d="m 8.2929374,255.75 c -3.1629766,-4.15328 4.3054146,-31.2247 16.6216086,-60.25 4.451865,-10.49161 16.927207,-35.02662 19.8674,-39.07282 2.310115,-3.17911 3.575864,-3.03594 2.854132,0.32282 -3.68796,17.16286 -7.671146,43.78525 -7.586895,50.70846 l 0.04918,4.04154 3.424839,-6.67112 C 50.328017,191.57404 58.381871,170.36885 74.222483,124 87.727373,84.468306 93.493432,66.062329 96.566392,52.675454 c 1.41093,-6.1465 2.930447,-11.54771 3.376704,-12.00269 1.459964,-1.488505 7.760854,5.198029 10.912234,11.580119 5.56406,11.268186 5.76634,15.254887 3.53888,69.747117 l -0.55183,13.5 5.58269,-10.77973 c 9.70588,-18.74126 28.447,-45.516272 56.5,-80.72027 12.85538,-16.132343 36.39997,-40.9011286 37.37694,-39.3203476 0.3464,0.5604776 -0.64808,2.7743421 -2.20995,4.9196989 C 209.5302,11.744708 207.90477,14.625 207.48,16 c -0.42477,1.375 -2.44852,6.1 -4.49722,10.5 C 196.25579,40.947578 194.1019,46.322998 189.15893,61 184.85997,73.764749 182.01559,80.905109 175.0086,96.522158 166.76391,114.89776 164.62287,120.14553 160.53404,132 c -2.56103,7.425 -5.78802,16.65 -7.1711,20.5 -10.45057,29.09075 -11.70586,33.5 -9.53725,33.5 1.07301,0 4.06594,-3.43723 7.57766,-8.70256 2.94211,-4.41128 7.59665,-8.2189 7.59665,-6.2144 0,0.62103 -1.43429,2.99391 -3.1873,5.27306 l -3.1873,4.1439 3.1873,-2.93709 c 4.0665,-3.74728 4.11316,-2.687 0.0837,1.90229 -1.70698,1.94414 -3.87854,3.5348 -4.82569,3.5348 -0.94715,0 -2.77897,1.125 -4.07072,2.5 -1.29175,1.375 -3.13719,2.5 -4.10099,2.5 -3.77089,0 -2.83734,-5.26021 4.34812,-24.5 2.4649,-6.6 5.03986,-13.8 5.72215,-16 3.25653,-10.50047 10.68572,-30.68383 13.7868,-37.45548 8.36077,-18.256909 18.48565,-43.106446 21.3597,-52.423209 C 189.83301,52.05459 194.15676,40.975 197.7241,33 208.31267,9.3286202 208.13157,10.455534 199.974,19 c -11.25007,11.783637 -32.05657,37.133471 -43.55178,53.061802 -2.11864,2.935702 -3.60245,4.927405 -9.69513,13.01367 C 141.43867,92.094308 128.07491,112.67509 123.72481,120.5 119.11374,128.79432 115,139.25802 115,142.69238 c 0,1.79913 -0.46715,2.3643 -1.75,2.11723 -1.49083,-0.28712 -1.7366,-1.44573 -1.65953,-7.82332 0.0995,-8.22991 1.15962,-27.91239 1.88448,-34.98629 1.70731,-16.661565 0.34348,-36.191267 -3.21235,-46 -1.82065,-5.022247 -6.87931,-13 -8.24325,-13 -1.02553,0 -1.17279,0.472008 -3.948534,12.655924 C 91.24477,85.618328 57.717947,180.87988 44.461555,207.97879 c -3.241764,6.62686 -3.583804,8.042 -3.002647,12.42297 0.779319,5.8748 1.879934,8.17403 4.612979,9.63671 4.960739,2.65491 15.409718,-5.2027 20.086235,-15.1048 3.608276,-7.6402 6.231646,-17.07475 4.965409,-17.85732 -0.630742,-0.38982 -0.673492,-1.18649 -0.112385,-2.09438 0.660856,-1.06929 1.204058,-1.16677 2.010117,-0.36071 2.314393,2.3144 -3.991987,20.42337 -10.021263,28.77639 -3.977779,5.51085 -12.450137,10.20772 -16.299146,9.03586 -3.397191,-1.03431 -5.522591,-3.33805 -6.26177,-6.7872 -1.105266,-5.15738 -1.474933,-5.05114 -5.355078,1.53899 C 20.68648,251.63838 12.118614,260.77346 8.2929374,255.75 z m 7.7792116,-4 c 4.882089,-5.00407 13.545963,-18.05587 18.450502,-27.79498 3.180233,-6.3151 3.477512,-7.65485 3.479256,-15.68006 0.0017,-7.66987 4.588453,-39.95479 6.503344,-45.77496 1.664758,-5.05991 -3.055543,2.75709 -9.963536,16.5 -11.271893,22.42454 -22.45706,52.19441 -24.51567,65.24966 C 8.9718548,250.9351 9.4223968,256 11.071282,256 c 0.469956,0 2.720346,-1.9125 5.000867,-4.25 z M 182,217.68938 c 0,-0.34133 2.43954,-5.02357 5.4212,-10.40499 5.58138,-10.07351 12.08378,-28.81382 13.16667,-37.94715 L 201.1614,164.5 199.00436,167 C 193.64916,173.20664 181,204.18757 181,211.09711 181,212.6937 180.52961,214 179.95469,214 c -3.84365,0 7.93429,-32.4206 16.61715,-45.74129 4.70186,-7.21329 5.42816,-8.98404 5.42816,-13.2341 0,-2.69862 -0.38114,-5.14213 -0.84698,-5.43004 -0.46583,-0.2879 -2.15333,0.84152 -3.75,2.50983 -5.78136,6.04076 -13.27625,11.16365 -15.14036,10.34869 -0.96946,-0.42384 -2.14235,-0.6851 -2.60641,-0.5806 -0.46406,0.10451 -0.67462,-0.16155 -0.46791,-0.59124 3.43468,-7.13965 5.20097,-8.47781 4.13141,-3.13001 l -0.63025,3.15124 4.07887,-2.29245 c 4.82553,-2.7121 14.92599,-12.64901 13.90004,-13.67496 -0.39293,-0.39292 -1.34249,0.15845 -2.11014,1.22526 -4.00634,5.5677 -4.42603,5.93731 -5.51963,4.86099 -2.04158,-2.00931 3.99075,-7.96407 9.056,-8.93955 1.5102,-0.29083 1.92198,0.13028 1.77958,1.81992 -0.1019,1.20907 -0.11407,4.67331 -0.027,7.69831 l 0.15823,5.5 3.95466,-4.5 c 2.17506,-2.475 3.97384,-5.42707 3.99729,-6.56016 0.0581,-2.80656 6.41425,-9.36471 6.86485,-7.083 0.17722,0.89738 -0.67777,3.03594 -1.89997,4.75237 l -2.22218,3.12076 2.2358,-0.70961 c 2.02264,-0.64196 2.12892,-0.50992 1.11478,1.38501 -0.65414,1.22228 -2.10875,2.09463 -3.49271,2.09463 -1.61435,0 -3.68012,1.56277 -6.46917,4.89398 -3.56977,4.2637 -4.28544,5.97186 -5.55698,13.26345 -0.80273,4.6032 -2.6168,12.36302 -4.03126,17.24403 -2.99413,10.3321 -11.30052,28.24578 -14.37603,31.00353 C 182.95602,217.45273 182,218.03071 182,217.68938 z M 82.508787,204.02769 c -0.745568,-2.34908 2.145967,-8.07927 4.467387,-8.85308 1.164647,-0.38822 1.112524,0.0411 -0.259165,2.13454 -2.33504,3.56372 -2.21594,5.01939 0.282991,3.45878 1.1,-0.68696 2,-1.71132 2,-2.27634 C 89,196.92442 93.938638,190 95.056375,190 c 0.54135,0 0.07513,1.78207 -1.036051,3.96016 C 92.909146,196.13825 92,198.683 92,199.61515 c 0,1.55472 0.165336,1.5452 2,-0.11515 1.1,-0.99549 2,-2.23326 2,-2.75062 0,-0.51735 0.949642,-2.27429 2.110315,-3.9043 1.160673,-1.63002 3.442055,-6.42215 5.069745,-10.64919 3.43551,-8.92189 6.61522,-14.44045 7.8726,-13.66335 0.485,0.29976 0.60625,1.92289 0.26944,3.60697 l -0.6124,3.06197 3.09549,-1.60074 C 115.50771,172.72033 117.21688,172 117.60335,172 c 0.97644,0 -3.54452,3.84542 -6.75482,5.74549 -2.52947,1.49711 -10.65172,15.78465 -9.58165,16.85472 0.26623,0.26623 1.61217,-0.7724 2.99097,-2.30808 1.3788,-1.53567 4.12267,-4.59213 6.09747,-6.79213 2.49178,-2.77591 3.59885,-3.48252 3.61762,-2.30902 0.0149,0.93004 -0.42294,1.9691 -0.97294,2.30902 -0.55,0.33992 -0.98171,1.37898 -0.95936,2.30902 0.0296,1.23334 0.7936,0.81141 2.82283,-1.55902 3.20164,-3.73999 4.13653,-4.03583 4.13653,-1.30902 0,1.06754 0.48921,2.24333 1.08713,2.61287 0.77358,0.4781 0.75417,0.99986 -0.0673,1.80902 -0.86466,0.85169 -1.49271,0.6791 -2.50198,-0.68755 -1.26895,-1.71828 -1.48008,-1.64539 -3.62074,1.25 -2.69709,3.64801 -3.88821,3.89851 -3.92135,0.82468 -0.0203,-1.88065 -0.89716,-1.27424 -5.34171,3.69406 -4.794766,5.35979 -5.420061,5.7607 -6.361416,4.07859 -0.959611,-1.71473 -1.171434,-1.61899 -2.621308,1.18476 -1.807199,3.49473 -3.905337,4.63856 -5.529451,3.01445 C 89.340081,201.94008 89,201.92841 89,202.68337 c 0,0.59585 -0.7875,1.36114 -1.75,1.70064 -0.9625,0.3395 -2.274313,0.86676 -2.915141,1.17168 -0.640828,0.30492 -1.46256,-0.38268 -1.826072,-1.528 z M 159.67018,175.84678 C 159.14968,173.85636 161.34014,168 162.60514,168 c 0.30457,0 0.24414,1.40975 -0.1343,3.13278 -0.65201,2.96858 -0.58426,3.06007 1.29263,1.74545 1.08939,-0.76304 3.50077,-3.37497 5.35862,-5.80428 4.32881,-5.66033 6.11507,-6.38766 4.84942,-1.97461 l -0.92698,3.23218 3.09898,-2.91576 3.09898,-2.91576 -1.59793,3.15526 c -0.87887,1.73539 -2.38162,3.93894 -3.33945,4.89677 -1.65535,1.65535 -1.7983,1.60258 -2.88935,-1.06664 l -1.14783,-2.80816 -3.62154,5.66139 c -3.81529,5.96425 -6.04121,7.08361 -6.97621,3.50816 z M 219,163.66369 c 0,-1.81774 3.91641,-4.83339 5.22598,-4.02403 0.49503,0.30595 1.65919,-0.10743 2.58703,-0.9186 4.16411,-3.64052 32.59671,-19.80491 53.18699,-30.23766 5.225,-2.64742 10.29813,-5.49359 11.27363,-6.32482 1.24145,-1.05785 2.08944,-1.19551 2.82618,-0.45877 0.73673,0.73673 -5.04632,4.19947 -19.27363,11.54057 -18.80825,9.70479 -26.49447,14.13442 -45.45112,26.19383 C 220.52148,165.06648 219,165.68672 219,163.66369 z M 222.40392,142 c 0.90229,-1.375 2.12454,-3.7375 2.71613,-5.25 1.18141,-3.02053 4.25158,-3.69524 5.62744,-1.23672 0.73287,1.30956 1.13111,1.24847 2.9583,-0.45381 1.91389,-1.78306 2.05983,-2.71985 1.55992,-10.01328 -0.38999,-5.68982 -0.21679,-8.04619 0.5914,-8.04619 0.66227,0 1.18481,1.78723 1.24257,4.25 0.0548,2.3375 0.40194,5.32978 0.77136,6.64951 l 0.67169,2.39951 1.39848,-2.89951 c 1.23739,-2.5655 1.44892,-2.66912 1.83625,-0.89951 0.68034,3.10829 2.35613,4.76641 3.58016,3.54238 0.57331,-0.57331 1.74413,-1.04238 2.60183,-1.04238 2.96843,0 3.76489,-3.07301 2.72223,-10.50337 -0.9931,-7.07725 -0.22657,-16.95143 1.24532,-16.04175 1.78576,1.10367 3.32256,9.84731 2.82351,16.06441 -0.28611,3.56439 -0.16334,6.48071 0.27282,6.48071 0.43616,0 2.07184,-2.0242 3.63485,-4.49821 1.563,-2.47402 3.17932,-4.49902 3.59182,-4.5 1.40243,-0.003 0.75658,2.72012 -1.25,5.27108 -2.64627,3.36419 -2.52385,3.8768 0.63869,2.6744 1.45128,-0.55177 2.91307,-0.72884 3.24843,-0.39349 0.99534,0.99534 -3.07119,3.44622 -5.71801,3.44622 -1.34674,0 -3.05218,0.7875 -3.78986,1.75 -0.9624,1.25569 -1.56061,1.42041 -2.11788,0.58314 -0.54909,-0.82498 -2.07458,-0.28184 -5.20656,1.85374 -3.93921,2.68599 -4.55857,2.84467 -5.59125,1.4324 -1.34793,-1.8434 -2.46356,-1.11215 -2.46356,1.61477 0,1.4583 -0.47502,1.74996 -2.04076,1.25301 -1.54915,-0.49168 -2.96646,0.33521 -5.88359,3.43262 -4.57787,4.86077 -7.00965,5.47003 -4.43475,1.11109 0.96468,-1.63308 1.40637,-3.31683 0.98153,-3.74167 -0.42484,-0.42484 -1.21249,0.0139 -1.75033,0.97497 -0.53785,0.96107 -2.13233,2.98232 -3.5433,4.49167 -2.37446,2.54001 -2.44329,2.55819 -0.92488,0.24426 z m 31.117,-29.70907 c -0.36902,-2.46082 -0.91662,-4.22857 -1.21687,-3.92831 -0.30026,0.30026 -0.19043,3.154 0.24407,6.34165 0.43449,3.18765 0.98208,4.95539 1.21687,3.92831 0.23478,-1.02707 0.12495,-3.88082 -0.24407,-6.34165 z M 241.8075,118.75 c -0.26736,-3.69517 -0.60482,-4.23925 -2.58495,-4.16765 -2.23876,0.081 -2.6243,-1.6151 -0.52612,-2.31449 2.0652,-0.6884 4.30357,2.85027 4.30357,6.80357 0,5.23715 -0.80604,5.01989 -1.1925,-0.32143 z m 22.85917,3.58333 c -1.24252,-1.24251 -0.67496,-4.01586 1.16207,-5.67834 2.08003,-1.88241 4.20674,-2.29047 2.37126,-0.45499 -1.73488,1.73488 -1.47808,3.27568 0.3,1.8 1.95652,-1.62377 1.90791,-0.55218 -0.11501,2.53518 -1.65825,2.53081 -2.55298,2.96349 -3.71832,1.79815 z M 273,117.14821 c 0,-0.54155 -0.3013,-1.80894 -0.66957,-2.81642 -0.63626,-1.74068 -0.56258,-1.73788 1.48125,0.0562 1.83649,1.6121 2.38961,1.68982 3.7849,0.53183 1.42595,-1.18342 1.58647,-1.10547 1.26021,0.61199 -0.38674,2.0358 -5.85679,3.54545 -5.85679,1.6164 z m 10.25584,-4.70624 c 0.3952,-2.06732 0.17777,-2.42632 -1.13342,-1.87141 C 277.8454,112.38065 276,112.2616 276,110.17559 c 0,-2.54661 1.66867,-3.69546 3.34584,-2.30353 0.69203,0.57433 2.19653,0.79887 3.34334,0.49897 2.57157,-0.67248 3.69595,0.95835 2.88591,4.18581 -0.82461,3.28551 -2.94915,3.18028 -2.31925,-0.11487 z M 279,109.94098 c 0,-0.58246 -0.45,-0.7809 -1,-0.44098 -0.55,0.33992 -1,0.81648 -1,1.05902 0,0.24254 0.45,0.44098 1,0.44098 0.55,0 1,-0.47656 1,-1.05902 z"
     id="path2997"
     inkscape:connector-curvature="0" />
</svg>
